<?xml version="1.0" standalone="no"?>
<!DOCTYPE svg PUBLIC "-//W3C//DTD SVG 20010904//EN"
 "http://www.w3.org/TR/2001/REC-SVG-20010904/DTD/svg10.dtd">
<svg version="1.0" xmlns="http://www.w3.org/2000/svg"
 width="700.000000pt" height="700.000000pt" viewBox="0 0 700.000000 700.000000"
 preserveAspectRatio="xMidYMid meet">
<metadata>
Created by potrace 1.11, written by Peter Selinger 2001-2013
</metadata>
<g transform="translate(0.000000,700.000000) scale(0.100000,-0.100000)"
fill="#000000" stroke="none">
<path d="M3288 6525 c-2 -2 -30 -6 -63 -9 -33 -4 -78 -9 -100 -12 -22 -2 -56
-6 -75 -9 -19 -2 -60 -9 -90 -15 -30 -6 -68 -14 -85 -16 -102 -17 -275 -68
-405 -119 -568 -224 -964 -650 -1099 -1183 -19 -74 -22 -90 -35 -177 -17 -111
-23 -345 -11 -430 2 -16 7 -52 10 -80 4 -27 17 -93 30 -145 101 -406 368 -716
832 -968 72 -39 194 -96 388 -182 77 -34 435 -156 615 -210 41 -12 84 -26 95
-30 11 -5 65 -23 120 -41 414 -133 710 -280 877 -435 119 -110 194 -249 213
-394 57 -427 -169 -768 -607 -911 -49 -16 -104 -32 -121 -34 -17 -3 -33 -8
-36 -10 -4 -2 -25 -6 -47 -9 -22 -4 -50 -8 -63 -11 -94 -18 -334 -24 -501 -12
-188 13 -385 60 -580 137 -69 27 -266 126 -301 151 -15 10 -29 19 -32 19 -11
0 -137 87 -282 193 -34 25 -198 161 -235 194 -13 13 -28 19 -32 15 -6 -7 -50
-127 -139 -382 -22 -63 -70 -200 -108 -305 -37 -104 -65 -194 -61 -198 12 -13
141 -68 300 -126 134 -49 156 -57 170 -59 3 -1 32 -11 65 -22 63 -22 355 -103
415 -114 19 -4 46 -10 60 -12 14 -3 41 -9 60 -14 19 -5 53 -12 75 -15 39 -6
120 -19 180 -30 17 -2 53 -7 80 -10 28 -3 66 -7 85 -10 192 -26 748 -25 850 0
8 2 40 7 70 10 79 10 247 41 321 60 35 10 73 19 84 21 11 2 67 19 125 38 735
238 1210 729 1349 1393 34 162 36 504 5 680 -47 266 -174 517 -360 713 -105
110 -188 178 -331 272 -306 201 -619 332 -1303 548 -255 81 -252 80 -415 140
-580 215 -811 447 -807 810 3 268 157 494 427 628 83 41 221 89 284 98 20 3
42 7 50 10 53 18 300 24 471 11 305 -22 604 -108 870 -249 171 -91 258 -151
488 -331 62 -49 115 -87 117 -85 4 4 90 252 100 288 3 12 153 457 171 510 3 8
5 16 5 17 0 2 7 19 15 39 13 30 13 38 2 45 -40 26 -322 122 -518 177 -136 39
-214 57 -380 90 -156 31 -229 43 -345 57 -27 3 -59 8 -70 10 -11 2 -51 7 -90
10 -38 3 -90 8 -115 11 -46 5 -627 13 -632 9z"/>
</g>
</svg>
