<?xml version="1.0" encoding="utf-8"?>
<!-- Generator: Adobe Illustrator 22.1.0, SVG Export Plug-In . SVG Version: 6.00 Build 0)  -->
<svg version="1.1" id="Layer_1" xmlns="http://www.w3.org/2000/svg" xmlns:xlink="http://www.w3.org/1999/xlink" x="0px" y="0px"
	 viewBox="0 0 600 600" style="enable-background:new 0 0 600 600;" xml:space="preserve">
<style type="text/css">
	.st0{fill:#231F20;}
</style>
<path class="st0" d="M425,474.8c-10.8,38.3-42.4,72.6-123,72.6c-33.6,0-69.2-4.7-97.5-26.9c-15.5-12.1-21.5-24.9-24.9-32.3
	c-5.4-13.4-9.4-22.2-9.4-49.1v-69.2h86.7V425c0,17.5-1.3,37.6,15.5,48.4c5.4,3.4,13.4,6.7,26.9,6.7c15.5,0,24.2-3.4,30.3-8.7
	c12.8-10.1,12.8-30.9,12.8-63.2c0-6.1,1.3-27.6-9.4-43.7c-6.7-10.1-16.8-16.1-20.2-18.8l-82.7-55.8c-18.2-12.1-27.6-19.5-39.7-39
	c-10.1-16.8-16.8-35-16.8-75.3c0-6.7-0.7-40.3,11.4-65.2c26.9-57.8,108.2-57.8,117.6-57.8c14.1,0,90.1,0,115,62.5
	c4.7,12.1,7.4,16.8,7.4,39.7v47.1h-87.4v-48.4c0-14.1-5.4-34.3-39-34.3c-20.2,0-39,7.4-39,47.1c0,2-1.3,30.3,9.4,45.7
	c2.7,4,8.7,8.7,18.1,15.5l84.7,58.5c6,4,24.9,18.2,39,37c20.8,27.6,18.8,48.4,18.8,82C429.7,441.2,429.7,456.6,425,474.8z"/>
</svg>
