<?xml version="1.0" standalone="no"?>
<!DOCTYPE svg PUBLIC "-//W3C//DTD SVG 20010904//EN"
 "http://www.w3.org/TR/2001/REC-SVG-20010904/DTD/svg10.dtd">
<svg version="1.0" xmlns="http://www.w3.org/2000/svg"
 width="292.000000pt" height="292.000000pt" viewBox="0 0 292.000000 292.000000"
 preserveAspectRatio="xMidYMid meet">
<metadata>
Created by potrace 1.11, written by Peter Selinger 2001-2013
</metadata>
<g transform="translate(0.000000,292.000000) scale(0.100000,-0.100000)"
fill="#000000" stroke="none">
<path d="M1081 2619 c-44 -3 -76 -10 -79 -17 -2 -7 -12 -12 -22 -12 -10 0 -22
-5 -25 -11 -4 -6 -13 -8 -20 -5 -7 2 -23 -3 -35 -11 -17 -12 -24 -13 -30 -3
-6 9 -12 9 -29 0 -12 -6 -27 -10 -34 -7 -6 2 -36 -3 -67 -10 -30 -8 -66 -15
-80 -17 -13 -2 -26 -9 -28 -15 -2 -7 -9 -8 -22 -1 -24 13 -90 3 -112 -17 -10
-9 -26 -17 -36 -18 -9 0 -24 -5 -32 -10 -8 -5 -19 -10 -25 -11 -11 -2 -91 -36
-144 -62 -19 -9 -47 -29 -62 -43 -16 -15 -29 -25 -29 -23 0 3 -14 -3 -31 -11
-17 -9 -28 -19 -25 -22 3 -3 -1 -11 -9 -17 -15 -11 41 -68 266 -272 19 -17 52
-50 73 -73 39 -43 138 -111 166 -116 8 -1 23 1 32 6 9 5 18 5 20 -1 5 -15 81
-18 103 -4 11 7 36 16 55 19 19 3 38 11 42 18 4 7 8 9 8 5 0 -13 45 9 96 47
37 27 62 38 94 40 68 5 111 15 151 36 33 17 58 24 114 34 11 2 56 13 100 25
44 11 102 23 128 25 27 1 51 5 53 8 3 3 18 1 34 -3 16 -4 31 -5 34 -2 9 8 32
10 180 16 133 5 191 18 182 42 -3 8 -1 14 5 14 6 0 7 5 4 10 -3 6 -2 10 4 10
14 0 35 136 23 154 -3 6 -5 24 -3 39 3 31 -15 84 -36 105 -7 7 -13 19 -13 27
0 7 -7 15 -15 19 -8 3 -15 13 -15 23 0 15 -2 15 -14 -3 -14 -18 -15 -18 -21
-1 -4 9 -11 17 -17 17 -5 0 -6 -5 -2 -11 5 -8 1 -8 -14 0 -17 9 -23 8 -31 -6
-9 -16 -12 -16 -21 -3 -6 10 -13 11 -17 5 -5 -6 -15 -10 -23 -10 -8 0 -18 -4
-22 -9 -4 -6 -17 -11 -30 -11 -13 -1 -29 -5 -36 -9 -7 -4 -12 -2 -12 6 0 9 -3
9 -10 -2 -8 -12 -10 -12 -10 5 0 14 -3 16 -9 7 -6 -10 -10 -10 -20 2 -15 18
-90 14 -102 -6 -7 -10 -9 -8 -9 5 0 10 -4 15 -10 12 -5 -3 -10 -2 -10 3 0 12
-50 8 -74 -5 -13 -7 -17 -16 -12 -29 6 -16 8 -16 16 -4 6 8 10 10 10 5 0 -18
60 -12 60 5 0 13 1 13 10 0 11 -17 30 -20 47 -7 7 5 25 6 40 1 16 -4 40 -8 55
-9 15 -1 30 -4 33 -7 6 -5 60 -2 125 8 65 10 130 12 125 4 -2 -4 3 -39 13 -76
20 -74 21 -189 3 -223 -8 -14 -8 -21 2 -24 13 -5 -85 -22 -118 -20 -11 0 -42
3 -69 7 -29 3 -55 1 -62 -5 -7 -6 -17 -8 -23 -5 -5 4 -16 -1 -25 -9 -10 -10
-17 -12 -22 -4 -3 6 -19 9 -35 7 -16 -3 -29 -1 -29 4 0 5 -3 7 -7 5 -5 -3 -26
-8 -47 -11 -42 -7 -61 -16 -32 -16 9 0 15 -4 11 -9 -7 -12 -45 -10 -45 1 0 5
-9 4 -20 -2 -11 -6 -20 -7 -21 -3 0 4 -4 -1 -9 -12 -7 -16 -9 -17 -9 -3 -1 9
-5 20 -11 23 -6 4 -7 -1 -3 -12 6 -16 5 -16 -10 -4 -9 7 -17 10 -17 5 0 -5
-10 -10 -22 -10 -35 -2 -69 -12 -84 -25 -8 -6 -14 -9 -14 -5 0 3 -15 0 -32 -7
-18 -8 -39 -12 -45 -10 -7 3 -13 0 -13 -6 0 -6 -19 -15 -42 -21 -24 -6 -49
-19 -55 -28 -8 -10 -13 -11 -13 -4 0 10 -5 10 -20 2 -27 -14 -40 -5 -33 23 14
58 -1 174 -31 247 -15 36 -28 71 -29 79 -3 21 51 47 149 71 49 11 96 24 104
27 8 3 18 6 22 5 3 -1 28 5 55 13 48 14 49 15 48 57 0 36 -3 43 -20 43 -11 0
-24 -4 -28 -10 -5 -6 -7 -4 -4 5 2 8 10 14 16 13 19 -5 13 6 -26 42 -40 38
-36 37 -202 24z m114 -29 c3 -8 23 -25 45 -38 22 -12 40 -29 40 -37 0 -19 -51
-36 -107 -36 -18 0 -33 -3 -33 -8 0 -4 -6 -8 -12 -9 -24 -1 -72 -13 -82 -20
-6 -3 -17 -7 -24 -8 -8 -2 -30 -13 -50 -26 -21 -14 -45 -27 -55 -31 -9 -4 -20
-14 -23 -22 -7 -18 21 -98 40 -118 12 -11 19 -34 34 -97 8 -38 5 -112 -7 -142
-11 -28 -84 -88 -108 -88 -7 0 -13 -4 -13 -10 0 -5 -7 -10 -16 -10 -8 0 -13
-4 -10 -8 6 -10 2 -11 -92 -17 -65 -5 -78 -2 -120 21 -47 26 -141 99 -154 119
-9 15 -62 66 -168 162 -47 42 -86 82 -88 89 -3 11 4 20 41 49 34 27 133 82
172 96 19 7 35 17 35 22 0 4 5 5 10 2 6 -3 10 -3 10 2 0 4 10 9 23 10 33 3 51
8 65 16 7 5 24 11 39 13 15 3 31 8 37 12 6 4 22 7 36 8 94 6 112 9 116 16 3 5
10 6 15 3 5 -4 9 0 9 7 0 10 3 9 11 -2 6 -9 12 -11 15 -5 2 6 21 9 41 7 20 -3
33 -1 30 5 -3 5 2 10 11 11 75 8 100 15 155 45 66 37 123 45 132 17z m415 -95
c-7 -9 -15 -13 -19 -10 -3 3 1 10 9 15 21 14 24 12 10 -5z m60 5 c0 -5 -5 -10
-11 -10 -5 0 -7 5 -4 10 3 6 8 10 11 10 2 0 4 -4 4 -10z m94 -18 c3 -5 -1 -9
-9 -9 -8 0 -12 4 -9 9 3 4 7 8 9 8 2 0 6 -4 9 -8z"/>
<path d="M1752 2521 c-11 -6 -10 -10 4 -15 20 -8 32 0 18 14 -5 5 -15 5 -22 1z"/>
<path d="M1372 2504 c-13 -9 -21 -21 -19 -27 4 -14 77 -19 77 -6 0 6 5 7 10 4
6 -3 10 3 10 14 0 12 -7 21 -15 21 -8 0 -15 -5 -15 -12 0 -6 -6 -4 -13 5 -11
16 -14 16 -35 1z"/>
<path d="M2109 1962 c-13 -9 -33 -25 -44 -35 -42 -39 -140 -100 -181 -113 -48
-14 -40 -19 -103 66 -24 31 -67 34 -106 6 -97 -71 -269 -158 -350 -177 -22 -5
-47 -12 -55 -16 -8 -3 -31 -7 -50 -8 -19 -1 -48 -5 -65 -8 -16 -3 -60 -8 -97
-11 -74 -7 -118 -20 -118 -36 0 -5 4 -10 10 -10 5 0 21 -12 37 -27 15 -16 31
-28 35 -28 4 0 19 -12 32 -27 13 -16 28 -28 33 -28 6 0 16 -7 23 -15 7 -9 15
-13 18 -10 3 3 18 -6 33 -21 14 -14 33 -27 40 -28 8 -2 25 -8 39 -13 14 -6 30
-9 36 -6 6 2 17 -3 24 -11 7 -9 16 -13 22 -10 5 3 15 1 22 -5 9 -8 22 -8 39
-2 21 8 28 7 36 -7 6 -9 11 -13 11 -9 0 4 9 3 21 -3 14 -8 24 -8 32 -1 7 5 33
10 57 11 96 2 110 4 110 10 0 4 15 5 33 2 63 -9 194 -1 218 14 5 3 9 1 9 -5 0
-7 8 -7 27 0 15 5 37 8 49 5 13 -4 25 -3 28 2 7 12 77 6 125 -12 51 -19 54
-19 46 -7 -11 19 12 20 27 1 13 -14 27 -17 63 -15 26 2 54 10 62 17 9 7 18 12
20 11 9 -7 23 -2 18 7 -3 6 -1 10 6 10 19 0 79 43 79 57 0 9 22 11 83 7 149
-10 157 -10 157 0 0 7 3 7 8 0 10 -16 107 -25 141 -13 30 10 61 48 65 77 2 9
-14 64 -34 123 -21 60 -35 110 -32 113 3 4 1 6 -5 6 -5 0 -8 21 -6 49 6 68 -9
94 -49 86 -35 -8 -52 -22 -159 -127 -43 -43 -86 -78 -96 -78 -10 1 -36 12 -58
25 -22 14 -49 29 -60 34 -36 17 -146 99 -196 146 -56 53 -77 60 -110 37z m95
-108 c31 -31 56 -53 56 -50 0 3 9 -2 20 -11 53 -48 67 -59 95 -78 17 -11 32
-20 35 -20 3 0 12 -5 20 -10 8 -6 24 -15 35 -20 35 -18 27 -38 -40 -112 -100
-109 -136 -126 -232 -110 -36 6 -57 22 -143 106 -55 55 -100 103 -100 107 0 4
-14 23 -32 41 -31 32 -31 33 -13 53 10 11 22 20 27 20 14 0 122 72 131 87 4 7
17 13 27 13 11 0 20 5 20 10 0 6 7 10 15 10 8 0 15 5 15 10 0 16 4 13 64 -46z
m580 -94 c9 -39 23 -87 31 -108 8 -20 16 -53 17 -71 l3 -35 -60 -4 c-33 -2
-71 -3 -85 -3 -30 1 -173 8 -179 10 -5 1 45 66 104 136 28 33 59 71 68 84 15
23 64 61 79 61 3 0 14 -32 22 -70z m-1027 24 c18 -14 33 -28 33 -32 0 -4 20
-28 45 -54 24 -27 41 -48 37 -48 -4 0 -2 -4 3 -8 13 -9 75 -89 75 -97 0 -3 13
-19 30 -36 31 -33 32 -48 2 -47 -22 0 -211 -10 -337 -18 -192 -13 -291 -7
-347 22 -15 8 -30 14 -33 14 -15 -1 -75 31 -75 39 0 6 -7 11 -15 11 -16 0 -74
37 -87 55 -12 16 40 36 106 42 62 4 107 10 116 13 3 1 10 3 15 4 22 3 131 50
137 60 5 7 8 7 8 -2 0 -14 26 -4 52 20 7 7 35 24 61 37 26 13 57 32 68 42 26
22 63 16 106 -17z"/>
<path d="M1257 1133 c-4 -3 -25 -8 -48 -10 -23 -3 -67 -17 -98 -31 -31 -14
-60 -27 -66 -27 -5 -1 -19 -6 -30 -12 -11 -6 -24 -11 -30 -12 -40 -4 -92 -17
-170 -43 -49 -16 -106 -32 -125 -34 -37 -5 -118 -20 -160 -29 -50 -10 -155
-16 -298 -16 -127 -1 -153 -4 -189 -21 -36 -18 -40 -23 -33 -42 8 -23 62 -88
94 -115 10 -9 26 -23 36 -32 9 -8 23 -13 31 -11 8 3 11 1 7 -3 -7 -7 14 -35
26 -35 3 0 15 -8 26 -17 11 -10 23 -16 27 -15 3 2 9 -1 12 -7 10 -15 73 -39
98 -36 12 1 20 -2 18 -5 -8 -12 89 -65 117 -65 21 1 25 -2 16 -12 -8 -10 -6
-13 6 -13 9 0 16 -3 16 -8 0 -4 13 -13 29 -20 34 -15 59 -38 121 -111 62 -74
68 -79 102 -97 20 -10 33 -12 42 -5 6 5 17 6 24 2 7 -4 34 -4 60 0 26 4 49 5
51 3 2 -2 12 3 23 10 21 15 58 10 58 -7 0 -7 4 -7 12 1 7 7 22 12 34 12 13 0
29 6 36 13 7 8 24 12 37 10 13 -2 33 5 44 14 11 10 17 12 13 6 -4 -7 -2 -13 3
-13 6 0 11 6 11 13 0 8 4 7 10 -3 8 -13 10 -13 10 1 0 11 9 15 31 14 18 -1 33
4 36 12 3 7 11 13 19 13 8 0 14 4 14 8 0 4 16 7 36 7 23 -1 38 4 41 13 5 11 7
11 15 0 7 -9 8 -5 6 13 -3 19 0 25 14 26 10 1 18 -2 18 -8 0 -5 7 -9 15 -9 8
0 15 4 15 9 0 4 12 6 26 3 17 -3 25 -1 21 5 -4 6 4 9 18 7 14 -1 25 2 25 7 0
5 5 9 11 9 5 0 8 -4 4 -9 -9 -15 16 -24 28 -11 9 10 9 11 0 6 -7 -4 -13 -2
-13 3 0 6 4 11 9 11 5 0 16 3 25 6 9 3 16 1 16 -6 0 -6 -6 -8 -12 -4 -10 5
-10 4 -2 -5 11 -13 44 -5 44 10 0 6 9 5 21 -1 12 -7 25 -8 32 -3 7 5 19 9 27
8 8 0 20 6 26 14 9 11 12 12 19 1 6 -9 4 -11 -5 -5 -9 5 -11 4 -6 -4 6 -8 12
-9 20 -2 7 6 16 8 19 4 4 -3 9 1 12 9 4 10 20 14 60 12 29 -1 59 -5 65 -9 6
-3 9 -1 8 7 -2 7 4 12 14 10 10 -1 23 6 30 18 7 11 20 20 29 20 22 0 79 50 79
70 -1 26 -26 50 -61 56 -19 4 -39 11 -46 16 -6 5 -36 12 -65 15 -29 3 -69 13
-88 23 -19 9 -52 23 -72 29 -20 7 -64 30 -98 52 -33 21 -63 39 -67 39 -3 0
-21 14 -40 30 -18 17 -40 30 -47 30 -7 0 -18 10 -25 23 -6 12 -43 45 -82 72
-83 58 -97 71 -124 107 -20 27 -87 62 -98 51z m48 -140 c82 -48 215 -137 240
-160 77 -71 256 -189 268 -177 3 3 18 -1 34 -9 26 -14 99 -43 115 -46 47 -8
68 -15 68 -20 0 -11 -15 -26 -30 -30 -8 -1 -35 -8 -60 -15 -48 -12 -97 -12
-196 -1 -99 12 -274 -44 -416 -132 -21 -13 -38 -20 -38 -17 0 4 -6 1 -14 -5
-8 -7 -22 -13 -32 -16 -11 -2 -39 -8 -64 -15 -119 -30 -143 -34 -289 -44 -50
-3 -56 -1 -83 27 -15 17 -28 34 -28 38 0 10 -42 53 -105 107 -51 43 -113 76
-160 86 -5 1 -22 10 -37 20 -15 10 -32 15 -38 11 -5 -3 -10 -1 -10 4 0 6 -6
11 -14 11 -8 0 -32 15 -54 33 -22 17 -59 43 -82 57 -40 24 -100 76 -128 111
-10 14 -8 19 14 34 15 9 23 12 20 6 -4 -6 0 -11 8 -11 9 0 16 3 16 8 0 4 19 8
43 9 23 1 63 3 89 6 26 2 45 0 43 -4 -3 -4 13 -3 36 2 22 5 44 7 50 4 5 -4 15
-3 21 1 15 10 39 13 93 15 22 1 54 8 70 17 33 17 40 19 131 26 34 3 84 15 110
27 27 12 56 23 64 24 8 2 38 11 65 20 28 10 57 20 65 23 8 3 21 4 29 3 13 -2
34 5 81 29 10 5 28 -2 50 -19 19 -14 44 -31 55 -38z m-1091 -291 c3 -5 -1 -9
-9 -9 -8 0 -12 4 -9 9 3 4 7 8 9 8 2 0 6 -4 9 -8z m1571 -232 c4 -6 11 -7 17
-4 7 4 8 2 4 -5 -6 -9 -12 -9 -24 1 -10 7 -19 14 -21 15 -2 2 1 3 7 3 6 0 14
-5 17 -10z m-35 -10 c0 -5 -2 -10 -4 -10 -3 0 -8 5 -11 10 -3 6 -1 10 4 10 6
0 11 -4 11 -10z m-174 -12 c4 -5 0 -8 -9 -8 -9 0 -17 -4 -17 -10 0 -5 -6 -7
-14 -4 -8 3 -17 1 -20 -5 -5 -7 -13 -7 -26 1 -18 12 -18 13 7 23 30 12 68 14
79 3z"/>
</g>
</svg>
