<?xml version="1.0" standalone="no"?>
<!DOCTYPE svg PUBLIC "-//W3C//DTD SVG 20010904//EN"
 "http://www.w3.org/TR/2001/REC-SVG-20010904/DTD/svg10.dtd">
<svg version="1.0" xmlns="http://www.w3.org/2000/svg"
 width="600.000000pt" height="600.000000pt" viewBox="0 0 600.000000 600.000000"
 preserveAspectRatio="xMidYMid meet">
<metadata>
Created by potrace 1.11, written by Peter Selinger 2001-2013
</metadata>
<g transform="translate(0.000000,600.000000) scale(0.100000,-0.100000)"
fill="#000000" stroke="none">
<path d="M4624 4456 c-47 -34 -120 -54 -229 -62 -38 -3 -74 -9 -80 -13 -5 -5
-53 -12 -105 -16 -52 -3 -108 -13 -125 -20 -25 -11 -138 -25 -210 -26 -10 0
-24 -4 -30 -9 -5 -4 -70 -11 -143 -14 -143 -6 -211 -14 -227 -26 -5 -4 -46
-10 -90 -13 -44 -3 -96 -11 -115 -17 -19 -7 -78 -15 -130 -20 -53 -4 -104 -12
-115 -18 -11 -5 -51 -15 -90 -20 -123 -18 -164 -28 -182 -44 -10 -9 -44 -22
-76 -29 -32 -7 -60 -16 -63 -21 -3 -4 -24 -8 -48 -8 -45 0 -68 -16 -80 -56 -4
-12 -15 -29 -26 -39 -15 -13 -20 -31 -20 -64 1 -50 21 -84 59 -96 13 -4 42
-20 66 -36 24 -16 57 -32 74 -35 17 -4 36 -13 42 -20 6 -8 17 -14 25 -14 7 0
48 -18 90 -40 43 -22 82 -40 89 -40 9 0 50 -20 155 -75 14 -7 40 -19 58 -25
17 -7 32 -16 32 -20 0 -5 15 -12 33 -15 17 -4 44 -16 59 -26 14 -11 31 -19 37
-19 6 0 11 -4 11 -8 0 -4 12 -13 28 -19 31 -14 46 -23 119 -75 29 -21 57 -38
63 -38 14 0 220 -206 220 -219 0 -6 13 -24 29 -41 16 -18 33 -42 39 -53 28
-60 42 -96 42 -109 0 -8 3 -18 8 -22 4 -4 7 -11 7 -14 1 -4 7 -18 14 -31 7
-13 10 -36 7 -51 -3 -18 0 -33 9 -40 17 -14 22 -175 6 -184 -5 -3 -12 -22 -16
-43 -4 -20 -15 -48 -26 -61 -10 -14 -19 -31 -19 -38 0 -8 -4 -14 -10 -14 -5 0
-10 -7 -10 -15 0 -8 -4 -15 -10 -15 -5 0 -10 -6 -10 -13 0 -7 -13 -26 -30 -42
-16 -16 -30 -32 -30 -37 0 -8 -84 -102 -131 -148 -41 -39 -57 -50 -71 -50 -8
0 -30 -16 -50 -35 -36 -35 -317 -185 -347 -185 -9 0 -28 -6 -43 -14 -14 -8
-46 -17 -70 -21 -24 -4 -54 -13 -68 -20 -14 -7 -59 -16 -100 -20 -41 -3 -80
-11 -86 -16 -12 -10 -348 -7 -374 4 -8 3 -50 8 -93 10 -43 3 -84 11 -92 17 -7
6 -44 16 -82 21 -69 10 -123 28 -123 41 0 5 -13 8 -29 8 -16 0 -31 3 -33 8 -1
4 -46 29 -98 56 -52 26 -117 61 -145 77 -27 16 -59 34 -70 38 -32 14 -145 144
-145 166 0 4 -12 32 -26 63 -14 31 -32 70 -38 85 -8 16 -13 66 -12 120 1 106
15 133 88 174 22 13 51 33 64 46 24 23 32 47 14 47 -5 0 -10 6 -10 14 0 21
-66 66 -97 66 -16 0 -34 5 -40 11 -14 14 -136 -16 -154 -37 -6 -8 -17 -14 -23
-14 -15 0 -56 -42 -56 -57 0 -5 -9 -18 -20 -28 -11 -10 -20 -24 -20 -30 0 -7
-7 -18 -15 -25 -19 -16 -21 -199 -3 -233 6 -12 13 -33 15 -48 4 -35 47 -146
77 -199 15 -25 32 -57 38 -72 7 -16 18 -28 25 -28 7 0 13 -7 13 -15 0 -24 150
-168 235 -225 44 -29 82 -56 85 -59 3 -3 41 -24 85 -45 44 -22 82 -42 85 -45
15 -17 182 -101 200 -101 8 0 21 -7 30 -15 10 -9 46 -20 81 -27 35 -6 70 -16
78 -22 29 -23 222 -55 342 -55 43 -1 80 -6 87 -13 8 -8 15 -8 25 0 7 7 63 12
137 13 133 1 239 13 268 28 9 6 38 13 64 16 26 3 50 10 53 16 4 5 17 9 30 9
13 0 52 12 87 26 35 14 72 30 83 34 35 13 69 30 110 55 22 14 51 29 64 35 13
6 41 24 61 40 21 17 41 30 45 30 25 0 371 307 360 318 -2 3 15 30 38 61 23 31
55 81 70 111 16 30 32 62 37 70 16 29 34 75 36 91 0 9 4 21 8 28 10 15 9 238
-1 254 -4 6 -8 14 -8 17 -9 54 -29 131 -40 152 -8 14 -15 35 -15 45 0 10 -6
27 -14 38 -7 11 -17 35 -20 52 -4 18 -21 45 -37 60 -16 16 -29 33 -29 40 0 38
-64 116 -236 289 -107 107 -198 194 -204 194 -6 0 -32 15 -58 34 -27 18 -58
36 -69 40 -12 4 -27 13 -33 21 -7 8 -19 15 -28 15 -8 0 -31 10 -51 22 -19 12
-44 24 -53 25 -10 2 -35 14 -56 26 -20 13 -54 30 -74 38 -21 7 -38 16 -38 20
0 4 -13 10 -30 14 -16 4 -32 11 -35 16 -4 5 -19 9 -35 9 -16 0 -31 4 -34 9
-11 17 21 30 95 42 41 6 81 15 90 19 9 5 57 11 107 15 51 4 92 11 92 15 0 4
37 10 83 14 143 11 192 18 202 26 6 4 64 11 130 15 66 4 125 11 131 16 5 4 73
13 150 20 76 6 148 15 159 19 11 5 81 14 155 20 74 6 152 16 173 21 20 5 42 7
47 4 12 -7 14 -72 2 -78 -4 -3 -9 -49 -10 -103 -2 -55 -6 -102 -8 -105 -14
-24 2 -847 17 -865 5 -6 9 -31 9 -55 -1 -24 2 -110 6 -191 6 -134 5 -148 -11
-154 -10 -4 -21 -1 -26 7 -6 10 -29 14 -80 14 -67 0 -72 -2 -95 -30 -27 -34
-33 -108 -11 -134 8 -9 22 -38 32 -66 10 -27 26 -61 37 -74 10 -13 18 -30 18
-37 0 -8 6 -14 14 -14 8 0 17 -15 20 -35 4 -19 11 -35 16 -35 6 0 10 -7 10
-15 0 -8 11 -34 25 -59 14 -25 25 -54 25 -64 0 -11 7 -25 15 -32 8 -7 15 -19
15 -28 0 -8 7 -23 15 -32 15 -16 28 -77 38 -178 3 -24 10 -49 16 -55 6 -6 11
-25 11 -43 0 -18 5 -34 11 -36 6 -2 14 -36 16 -75 5 -69 7 -72 59 -127 30 -31
54 -61 54 -66 0 -5 12 -12 28 -16 15 -3 38 -9 52 -13 54 -16 129 49 130 113 0
37 -42 179 -60 201 -5 6 -11 27 -15 48 -4 20 -11 40 -16 43 -5 3 -9 22 -9 42
0 20 -5 55 -11 77 -5 22 -12 56 -14 75 -2 19 -6 50 -10 68 -7 40 0 55 23 42 9
-5 46 -17 82 -27 92 -26 359 -26 409 0 19 9 40 17 46 17 7 0 18 6 24 14 6 7
27 16 46 19 19 3 40 10 47 16 7 6 26 21 41 33 l28 23 -3 278 c-3 274 -3 278
-23 264 -13 -10 -19 -26 -18 -51 1 -24 -3 -36 -12 -36 -7 0 -17 -14 -20 -32
-10 -45 -183 -208 -221 -208 -5 0 -22 -7 -39 -16 -44 -23 -229 -21 -272 4 -12
6 -31 12 -43 12 -24 0 -99 45 -106 64 -6 15 -7 39 -29 561 -17 405 -9 890 15
905 5 3 11 43 15 90 4 47 12 91 18 98 5 6 7 25 4 42 -4 16 -3 32 2 34 12 8 24
149 16 196 -8 50 -40 81 -107 104 -29 11 -58 23 -64 27 -23 18 -98 21 -120 5z"/>
</g>
</svg>
