<?xml version="1.0" encoding="utf-8"?>
<!-- Generator: Adobe Illustrator 22.1.0, SVG Export Plug-In . SVG Version: 6.00 Build 0)  -->
<svg version="1.1" id="Layer_1" xmlns="http://www.w3.org/2000/svg" xmlns:xlink="http://www.w3.org/1999/xlink" x="0px" y="0px"
	 viewBox="0 0 593.8 75" style="enable-background:new 0 0 593.8 75;" xml:space="preserve">
<g>
	<path d="M34.3,61.6c-1.4,5.1-5.7,9.7-16.5,9.7c-4.5,0-9.3-0.6-13-3.6c-2.1-1.6-2.9-3.3-3.3-4.3c-0.7-1.8-1.3-3-1.3-6.6v-9.3h11.6
		V55c0,2.3-0.2,5,2.1,6.5c0.7,0.5,1.8,0.9,3.6,0.9c2.1,0,3.2-0.4,4-1.2c1.7-1.3,1.7-4.1,1.7-8.5c0-0.8,0.2-3.7-1.3-5.8
		c-0.9-1.4-2.3-2.2-2.7-2.5L8.2,36.9c-2.4-1.6-3.7-2.6-5.3-5.2C1.5,29.4,0.6,27,0.6,21.6c0-0.9-0.1-5.4,1.5-8.7
		c3.6-7.7,14.5-7.7,15.7-7.7c1.9,0,12.1,0,15.4,8.4c0.6,1.6,1,2.3,1,5.3v6.3H22.6v-6.5c0-1.9-0.7-4.6-5.2-4.6c-2.7,0-5.2,1-5.2,6.3
		c0,0.3-0.2,4,1.3,6.1c0.4,0.5,1.2,1.2,2.4,2.1l11.3,7.8c0.8,0.5,3.3,2.4,5.2,4.9c2.8,3.7,2.5,6.5,2.5,11
		C34.9,57.1,34.9,59.2,34.3,61.6z"/>
	<path d="M66.7,15.6V70H54.9V15.6H43.2V6.5h35.3v9.2H66.7z"/>
	<path d="M88.2,70V6.5h11.6V70H88.2z"/>
	<path d="M139.8,62.4c-2.7,9.4-13.6,9-15.5,9c-1.1,0-6.7,0-10.5-2.8c-1-0.7-2.5-2.1-3.5-4.9c-0.7-2.3-0.8-4.5-0.8-5.3v-8.5h10.9v6
		c0,3.2,0.4,4.8,2,5.7c0.7,0.4,1.4,0.5,2.2,0.5c0.5,0,1.5-0.1,2.5-0.8c1.4-1.1,1.7-2.6,1.7-5.8v-49h11.8v49.1
		C140.5,56.1,140.5,59.7,139.8,62.4z"/>
	<path d="M175.8,70l-11.2-47.6l1,47.6h-11V6.5h15L181,53.1l-1.2-46.6h10.7V70H175.8z"/>
	<path d="M250.6,70h-11.8L226.2,6.5h12.4l6.2,42l5.8-42h12L250.6,70z"/>
	<path d="M294.9,70l-1.5-10.3h-10.8L280.9,70h-11.7l12.3-63.5h13.4L306.8,70H294.9z M288.3,22.6L284,49.8h8.1L288.3,22.6z"/>
	<path d="M338.4,70l-11.2-47.6l1,47.6h-11V6.5h15l11.4,46.6l-1.2-46.6h10.7V70H338.4z"/>
	<path d="M426.1,62.7c-3.1,8.8-14.8,8.6-16.2,8.6c-2.7,0-5.2-0.4-6-0.6c-4.7-0.9-8.8-3-10.7-7.6c-0.9-2.3-0.9-4.3-0.9-6.7V21.9
		c0-1.1,0.1-2.3,0.2-3.3c0.2-4,1.3-7.2,4.5-9.8c2.6-2.1,6.1-3.7,13.1-3.7c4,0,8.4,0.5,11.9,2.9c1.7,1.2,3.1,2.8,4,4.7
		c1,2.1,1.1,3.3,1.1,7.2v9.7h-11.5v-8c0-4.9-0.8-7.5-6-7.5c-4.5,0-5.4,2.8-5.4,6.9v34c0,4.1,0.9,7.2,5.8,7.2c5.2,0,5.7-3,5.7-7.8
		v-8.3H427v9C427,57.7,426.9,60.4,426.1,62.7z"/>
	<path d="M470.5,65.9c-4.5,5.8-13.1,5.5-14.7,5.5c-4.7,0-9.5-1-13-4.6c-0.6-0.6-1.9-2.2-2.7-4.3c-0.9-2.3-1.2-4.8-1.2-7v-49h11.7
		v47.2c0,1.7,0,3.4,0.6,5c1.2,2.6,4.1,2.7,4.9,2.7c0.5,0,2.1,0,3.4-1c2.3-1.5,2-4.5,2-6.8V6.5h11.8v49.2
		C473.4,59.5,473,62.6,470.5,65.9z"/>
	<path d="M487.2,70V6.5h11.6V70H487.2z"/>
	<path d="M538.8,62.4c-2.7,9.4-13.6,9-15.5,9c-1.1,0-6.7,0-10.5-2.8c-1-0.7-2.5-2.1-3.5-4.9c-0.7-2.3-0.8-4.5-0.8-5.3v-8.5h10.9v6
		c0,3.2,0.4,4.8,2,5.7c0.7,0.4,1.4,0.5,2.2,0.5c0.5,0,1.5-0.1,2.5-0.8c1.4-1.1,1.7-2.6,1.7-5.8v-49h11.8v49.1
		C539.5,56.1,539.5,59.7,538.8,62.4z"/>
	<path d="M577.9,70l-12.4-31v31h-11.9V6.5h11.9v24.7l12.7-24.7h12.1l-14.5,27.4L590.6,70H577.9z"/>
</g>
<g>
</g>
<g>
</g>
<g>
</g>
<g>
</g>
<g>
</g>
<g>
</g>
</svg>
